<svg xmlns="http://www.w3.org/2000/svg" xmlns:xlink="http://www.w3.org/1999/xlink" id="svg" width="400" height="400" viewBox="0, 0, 400,400">
    <g id="svgg">
        <path id="path0" fill="#598ea1" fill-rule="evenodd" stroke="none" d="M153.819 54.510 C 140.729 60.455,131.367 77.177,133.755 90.344 C 139.968 124.602,184.206 130.654,198.627 99.219 C 211.216 71.775,181.371 41.995,153.819 54.510 M181.611 71.514 C 191.318 81.222,188.167 98.832,175.797 104.000 C 152.637 113.677,135.696 81.822,156.906 68.479 C 164.166 63.912,175.387 65.290,181.611 71.514 M115.469 121.861 C 99.417 130.345,75.952 178.717,69.605 216.406 L 67.763 227.344 42.196 227.774 C 5.120 228.399,5.434 226.932,33.773 267.099 C 56.575 299.415,57.107 300.998,44.531 299.080 C 36.362 297.834,25.918 293.237,20.065 288.313 C 11.841 281.393,1.779 285.397,6.276 293.799 C 16.275 312.481,60.223 318.605,81.121 304.229 L 86.461 300.555 97.337 306.137 C 115.580 315.499,141.163 314.574,156.762 303.988 L 162.500 300.094 168.198 303.961 C 185.440 315.662,217.891 315.198,233.360 303.030 L 237.292 299.937 244.627 304.589 C 260.641 314.744,284.684 315.360,302.776 306.078 C 313.529 300.560,313.735 300.522,317.388 303.348 C 337.448 318.865,383.384 313.119,393.724 293.799 C 398.221 285.397,388.159 281.393,379.935 288.313 C 371.110 295.738,348.669 302.604,346.212 298.629 C 345.695 297.793,354.773 283.682,366.386 267.273 C 377.999 250.864,387.500 236.214,387.500 234.719 C 387.500 233.223,374.661 219.175,358.969 203.500 L 330.438 175.000 279.997 175.000 C 232.055 175.000,229.394 174.848,226.269 171.937 C 224.460 170.252,218.387 167.389,212.773 165.576 C 193.798 159.445,182.925 152.654,163.496 134.797 C 145.336 118.106,130.257 114.045,115.469 121.861 M142.340 135.069 C 143.714 135.630,146.254 138.006,147.986 140.349 C 157.369 153.040,189.207 173.338,208.551 178.961 C 220.503 182.435,224.007 190.826,215.425 195.419 C 209.461 198.611,183.960 188.272,162.341 173.896 C 156.104 169.749,150.688 167.189,149.287 167.726 C 144.205 169.677,133.350 192.982,127.340 214.844 L 123.904 227.344 103.358 227.780 L 82.813 228.216 82.813 223.654 C 82.813 204.466,108.453 142.755,119.240 135.983 C 126.143 131.649,133.276 131.367,142.340 135.069 M159.428 189.100 C 174.797 200.044,206.358 211.720,216.118 210.072 C 223.316 208.857,232.062 200.725,233.573 193.842 C 234.528 189.494,235.181 189.063,240.797 189.063 L 246.971 189.063 246.532 208.203 L 246.094 227.344 192.578 227.755 C 147.565 228.101,139.063 227.819,139.063 225.980 C 139.063 220.769,152.057 185.938,154.000 185.938 C 154.543 185.938,156.985 187.361,159.428 189.100 M282.813 208.594 L 282.813 228.125 271.875 228.125 L 260.938 228.125 260.938 208.594 L 260.938 189.063 271.875 189.063 L 282.813 189.063 282.813 208.594 M318.750 208.594 L 318.750 228.125 307.813 228.125 L 296.875 228.125 296.875 208.594 L 296.875 189.063 307.813 189.063 L 318.750 189.063 318.750 208.594 M349.219 212.500 L 364.785 228.125 348.799 228.125 L 332.813 228.125 332.813 212.500 C 332.813 203.906,333.001 196.875,333.232 196.875 C 333.463 196.875,340.657 203.906,349.219 212.500 M348.915 267.969 C 329.003 296.196,329.570 295.754,321.816 289.126 C 315.142 283.422,310.986 283.221,304.935 288.313 C 288.568 302.085,264.560 302.666,247.574 289.700 C 239.329 283.406,234.649 282.999,229.806 288.155 C 216.638 302.172,183.362 302.172,170.194 288.155 C 165.351 282.999,160.671 283.406,152.426 289.700 C 135.365 302.723,111.505 302.146,95.065 288.313 C 88.938 283.158,85.473 283.346,78.149 289.231 C 74.825 291.902,71.400 293.836,70.536 293.528 C 68.977 292.973,34.375 244.656,34.375 243.034 C 34.375 242.569,109.238 242.188,200.738 242.188 L 367.101 242.187 348.915 267.969 M79.935 330.500 C 73.952 335.535,63.421 340.191,54.955 341.545 C 47.221 342.781,44.224 346.608,46.970 351.739 C 49.651 356.749,63.657 355.292,77.279 348.586 L 87.734 343.439 96.601 348.124 C 115.245 357.974,135.008 357.968,153.508 348.107 L 162.500 343.315 171.862 348.305 C 189.867 357.901,210.204 357.824,228.516 348.090 L 237.500 343.315 246.484 348.090 C 265.101 357.987,285.442 357.865,303.984 347.748 C 313.235 342.700,313.512 342.651,316.939 345.426 C 322.362 349.817,336.874 354.688,344.535 354.688 C 357.469 354.688,357.828 343.482,344.955 341.551 C 336.572 340.294,323.604 334.321,319.680 329.909 C 315.824 325.574,311.618 325.674,305.616 330.243 C 286.044 345.143,262.586 345.243,245.065 330.500 C 239.170 325.540,235.830 325.540,229.935 330.500 C 212.953 344.790,188.590 345.160,171.270 331.391 C 163.902 325.535,161.023 325.378,154.935 330.500 C 138.002 344.748,115.416 345.239,96.666 331.765 C 87.981 325.525,86.024 325.377,79.935 330.500 "/>
    </g>
</svg>
