<svg xmlns="http://www.w3.org/2000/svg" width="40" height="40" fill="none"><path fill="#5A8EA1" fill-rule="evenodd" d="M36.2 37.5c-.7.4-1.4.8-2.8.8l5.2-15.4c.2-.4 0-.9-.5-1l-4.8-2.2v-8.4c0-1.4-1.2-2.6-2.6-2.6h-1.4V4.3c0-.4-.4-.8-.9-.8H21V0H19v3.5h-7.5c-.5 0-1 .4-1 .8v4.4H9.4a2.6 2.6 0 0 0-2.6 2.6v8.4l-4.8 2.1c-.5.2-.7.7-.5 1l5.2 15.5c-1.4 0-2-.4-2.8-.8-1-.5-2-1-3.8-1v1.8c1.4 0 2.1.3 3 .7.8.5 1.8 1 3.7 1a7.5 7.5 0 0 0 3.7-1c.8-.4 1.5-.7 3-.7 1.4 0 2 .3 2.8.7 1 .5 1.9 1 3.8 1s2.9-.5 3.7-1c.8-.4 1.5-.7 3-.7 1.4 0 2 .3 2.9.7.6.4 1.3.7 2.4.9l1.3.1c2 0 2.9-.5 3.8-1 .8-.4 1.4-.7 2.9-.7v-1.8c-1.9 0-2.9.5-3.8 1Zm.5-14.4-.7 1.8L21 18.1v-2l15.8 7ZM12.4 5.2h15.1v3.5h-15V5.2Zm-4 6.1c0-.5.4-.9 1-.9h21.3c.4 0 .8.4.8.9v7.6l-11.1-5a1 1 0 0 0-.8 0L8.4 19v-7.6Zm-5 11.8L19 16v2L4 25l-.7-1.8Zm28.2 15-1.2-.6c-.9-.5-1.9-1-3.8-1-1.8 0-2.8.5-3.7 1-.8.4-1.5.8-3 .8-1.4 0-2-.4-2.8-.8-.9-.5-1.9-1-3.8-1s-2.8.5-3.7 1l-1.2.5-3.9-11.4 14.6-6.5v10.3H21V20.1l14.6 6.5-4 11.4Z" clip-rule="evenodd"/></svg>