<svg id="svg" xmlns="http://www.w3.org/2000/svg" xmlns:xlink="http://www.w3.org/1999/xlink" width="400" height="400" viewBox="0, 0, 400,400"><g id="svgg"><path id="path0" d="M189.602 0.242 C 188.593 0.329,185.382 0.593,182.467 0.830 C 67.068 10.197,-16.158 118.292,3.273 233.569 C 22.538 347.860,135.643 421.624,248.726 393.646 C 352.292 368.023,417.359 264.456,395.874 159.429 C 378.401 74.010,307.631 10.124,220.387 1.012 C 214.658 0.413,193.708 -0.111,189.602 0.242 M209.378 28.959 C 358.259 37.747,426.061 218.624,319.423 322.529 C 227.849 411.756,73.346 371.702,36.314 249.134 C 2.154 136.074,91.804 22.020,209.378 28.959 M305.456 124.782 C 300.530 125.807,306.400 119.874,235.270 195.719 C 204.037 229.021,177.509 257.266,176.319 258.484 L 174.154 260.700 165.874 252.599 C 161.320 248.144,146.086 233.149,132.021 219.277 C 102.886 190.541,104.500 191.845,98.063 191.845 C 89.759 191.845,84.058 197.844,84.498 206.116 C 84.824 212.225,79.458 206.438,141.605 267.705 C 168.275 293.997,168.240 293.969,173.445 294.299 C 180.828 294.768,176.334 299.049,242.693 228.338 C 274.578 194.363,304.972 161.981,310.236 156.378 C 321.502 144.385,321.916 143.735,321.916 138.022 C 321.916 129.184,314.186 122.966,305.456 124.782 " stroke="none" fill="#598ea1" fill-rule="evenodd"></path></g></svg> 