<svg xmlns="http://www.w3.org/2000/svg" xmlns:xlink="http://www.w3.org/1999/xlink" id="svg" width="400" height="400" viewBox="0, 0, 400,400">
    <g id="svgg">
        <path id="path0" fill="#598ea1" fill-rule="evenodd" stroke="none" d="M182.864 15.842 C 179.047 18.931,178.586 20.968,177.778 38.319 L 176.889 57.399 169.684 59.519 C 107.407 77.849,85.548 150.574,129.375 193.625 C 142.691 206.706,160.252 216.717,192.000 229.327 C 237.688 247.474,250.141 261.042,237.166 278.536 C 221.216 300.041,182.682 296.508,147.679 270.331 C 136.005 261.601,132.126 261.354,125.049 268.889 C 114.531 280.087,101.333 299.245,101.333 303.314 C 101.333 316.413,137.926 339.874,171.556 348.337 L 178.667 350.126 178.667 367.769 C 178.667 392.260,179.310 392.889,204.380 392.889 C 230.067 392.889,229.982 392.965,231.111 368.952 L 232.000 350.049 244.046 345.847 C 304.401 324.792,325.491 251.335,283.033 210.061 C 271.020 198.384,254.014 188.977,221.608 176.084 C 179.738 159.426,170.667 152.618,170.667 137.852 C 170.667 110.108,217.358 104.114,252.085 127.401 C 266.257 136.905,269.353 137.867,274.632 134.409 C 279.163 131.440,298.667 98.257,298.667 93.517 C 298.667 83.979,269.227 64.964,244.925 58.804 L 232.000 55.528 231.111 36.504 C 229.987 12.454,229.977 12.444,205.190 12.444 C 189.991 12.444,186.382 12.994,182.864 15.842 M220.056 44.869 L 220.557 65.738 225.390 66.652 C 249.850 71.275,269.351 79.006,280.926 88.669 L 286.711 93.499 279.367 106.749 C 268.313 126.693,269.679 125.565,262.859 120.378 C 219.709 87.553,154.745 100.077,158.627 140.472 C 160.404 158.968,173.033 169.500,211.941 184.936 C 273.102 209.200,290.575 224.988,292.946 258.128 C 295.635 295.714,268.851 329.469,229.671 337.871 L 220.555 339.826 220.055 360.580 L 219.556 381.333 204.889 381.850 L 190.222 382.366 190.222 361.381 L 190.222 340.397 174.487 336.638 C 151.277 331.093,113.778 310.901,113.778 303.947 C 113.778 301.980,133.182 275.556,134.626 275.556 C 135.100 275.556,138.403 277.862,141.966 280.682 C 188.544 317.540,252.444 308.812,252.444 265.591 C 252.444 254.087,246.932 244.652,235.959 237.375 C 227.090 231.493,221.165 228.740,180.444 211.578 C 158.963 202.524,140.871 190.844,132.494 180.621 C 99.531 140.394,125.327 80.433,180.584 68.843 L 190.222 66.822 190.222 46.152 C 190.222 21.604,189.350 22.846,206.142 23.487 L 219.556 24.000 220.056 44.869 "/>
    </g>
</svg>
