<svg xmlns="http://www.w3.org/2000/svg" width="122" height="122" viewBox="0 0 122 122">
  <g fill="none" fill-rule="evenodd" stroke="#5A8EA1" stroke-linecap="round" stroke-linejoin="round" stroke-width="5">
    <path d="M119 61c0 32.032-25.968 58-58 58S3 93.032 3 61 28.968 3 61 3s58 25.968 58 58z"/>
    <path d="M77 43c0 8.836-7.164 16-16 16s-16-7.164-16-16 7.164-16 16-16 16 7.164 16 16zM61 67c-10.804 0-20.628 4.216-26.912 7.7C29.748 77.112 27 81.912 27 87.188v2.56C27 92.652 29.172 95 31.856 95h58.288C92.824 95 95 92.652 95 89.748v-2.56c0-5.276-2.748-10.076-7.088-12.488C81.628 71.216 71.804 67 61 67z"/>
  </g>
</svg>
