<svg xmlns="http://www.w3.org/2000/svg" xmlns:xlink="http://www.w3.org/1999/xlink" id="svg" width="400" height="400" viewBox="0, 0, 400,400">
    <g id="svgg">
        <path id="path0" fill="#598ea1" fill-rule="evenodd" stroke="none" d="M43.538 26.104 C 34.921 29.658,28.769 36.497,26.228 45.344 C 25.107 49.246,25.004 64.622,25.188 201.594 L 25.391 353.516 27.134 357.813 C 29.658 364.035,34.771 369.487,41.095 372.697 L 46.402 375.391 127.303 375.556 L 208.203 375.721 205.469 373.660 C 203.965 372.526,199.116 367.969,194.693 363.533 L 186.652 355.469 119.811 355.469 C 45.682 355.469,49.057 355.702,46.539 350.395 C 45.420 348.037,45.320 333.431,45.502 198.833 L 45.703 49.880 48.621 47.206 L 51.540 44.531 123.006 44.531 L 194.473 44.531 194.697 81.194 C 194.999 130.456,190.259 125.310,235.603 125.610 L 268.750 125.830 268.750 143.875 L 268.750 161.921 274.023 161.435 C 276.924 161.168,281.406 161.258,283.984 161.634 C 286.563 162.010,288.779 162.223,288.909 162.106 C 289.040 161.990,289.155 150.166,289.165 135.830 C 289.187 104.646,288.970 103.624,280.262 93.906 C 238.047 46.794,221.772 29.735,216.625 27.201 L 211.362 24.609 129.704 24.427 L 48.047 24.245 43.538 26.104 M242.664 83.203 C 251.247 92.656,258.540 100.830,258.869 101.367 C 259.342 102.139,255.116 102.344,238.718 102.344 L 217.969 102.344 217.969 79.364 L 217.969 56.385 222.513 61.200 C 225.012 63.849,234.080 73.750,242.664 83.203 M83.827 132.769 C 77.140 136.879,77.706 146.710,84.801 149.675 C 89.525 151.649,160.517 151.270,163.825 149.253 C 169.598 145.733,170.448 138.838,165.696 134.085 L 163.252 131.641 124.790 131.436 C 87.716 131.239,86.238 131.287,83.827 132.769 M268.662 182.786 C 187.138 191.052,151.950 289.176,209.530 347.680 C 261.374 400.355,352.583 375.604,371.459 303.738 C 388.454 239.031,334.941 176.066,268.662 182.786 M85.488 185.074 C 78.520 188.239,77.975 197.550,84.523 201.542 C 87.046 203.081,88.336 203.119,137.399 203.122 L 187.689 203.125 197.008 194.141 C 202.133 189.199,206.661 185.156,207.069 185.156 C 207.478 185.156,207.813 184.805,207.813 184.375 C 207.813 182.725,89.167 183.403,85.488 185.074 M290.075 206.635 C 338.740 215.121,365.368 266.943,343.870 311.328 C 319.062 362.549,247.666 367.177,216.351 319.595 C 181.326 266.376,227.444 195.713,290.075 206.635 M83.706 238.697 C 78.857 242.777,78.674 249.044,83.285 253.092 L 85.992 255.469 123.660 255.469 L 161.328 255.468 164.037 247.070 C 165.526 242.451,166.870 238.232,167.024 237.695 C 167.244 236.923,158.805 236.719,126.680 236.719 L 86.057 236.719 83.706 238.697 M308.203 246.017 C 306.914 246.831,297.250 256.145,286.727 266.714 L 267.595 285.932 258.212 276.599 C 248.544 266.983,246.479 265.623,241.551 265.628 C 233.675 265.636,227.827 275.210,231.570 281.967 C 232.992 284.533,259.179 310.814,262.109 312.616 C 264.994 314.389,268.802 314.465,272.109 312.815 C 275.069 311.337,322.252 264.627,323.880 261.562 C 329.125 251.687,317.493 240.152,308.203 246.017 M84.295 290.846 C 78.762 294.563,78.533 302.588,83.846 306.557 C 86.008 308.171,86.789 308.207,124.367 308.420 L 162.684 308.637 162.241 306.076 C 161.998 304.668,161.358 300.264,160.819 296.289 L 159.840 289.063 123.395 289.063 L 86.950 289.063 84.295 290.846 "/>
    </g>
</svg>
